<svg width="36" height="36" viewBox="0 0 36 36" fill="none" xmlns="http://www.w3.org/2000/svg">
<path fill-rule="evenodd" clip-rule="evenodd" d="M29.625 0H6.375C2.85 0 0 2.92308 0 6.53846V29.4615C0 33.0769 2.85 36 6.375 36H29.625C33.15 36 36 33.0769 36 29.4615V6.53846C36 2.92308 33.15 0 29.625 0ZM7.5 25.6597V10.0831C7.5 9.97709 7.545 9.91654 7.65 9.91654C7.905 9.91654 8.145 9.91654 8.49 9.9014C8.67536 9.89361 8.8647 9.88983 9.06006 9.88593L9.06017 9.88592C9.2442 9.88225 9.43357 9.87847 9.63 9.87113C9.83947 9.8633 10.057 9.85952 10.2825 9.8556C10.493 9.85194 10.7105 9.84816 10.935 9.84085C11.4 9.82571 11.85 9.82571 12.3 9.82571C13.53 9.82571 14.55 9.97709 15.39 10.295C16.14 10.5523 16.83 10.9762 17.4 11.5363C17.88 12.0207 18.255 12.611 18.495 13.262C18.72 13.8977 18.84 14.5486 18.84 15.2298C18.84 16.5317 18.54 17.6064 17.94 18.4542C17.34 19.3019 16.5 19.9376 15.525 20.3009C14.505 20.6794 13.38 20.8156 12.15 20.8156C11.79 20.8156 11.55 20.8156 11.4 20.8005C11.25 20.7853 11.04 20.7853 10.755 20.7853V25.6445C10.77 25.7505 10.695 25.8413 10.59 25.8564H7.68C7.56 25.8564 7.5 25.7959 7.5 25.6597ZM10.77 12.8381V17.9243L10.815 17.9276C11.0079 17.9416 11.1879 17.9546 11.355 17.9546H12.15C12.735 17.9546 13.32 17.8638 13.875 17.6821C14.355 17.5459 14.775 17.2583 15.105 16.8798C15.42 16.5014 15.57 15.9867 15.57 15.3207C15.585 14.8514 15.465 14.3821 15.225 13.9734C14.97 13.5798 14.61 13.2771 14.175 13.1106C13.62 12.8835 13.02 12.7927 12.405 12.8078C12.015 12.8078 11.67 12.8078 11.385 12.823C11.085 12.8078 10.875 12.823 10.77 12.8381ZM26.76 16.4863C27.27 16.5922 27.75 16.7587 28.2 17.0009C28.26 17.0312 28.335 17.0312 28.47 17.0009C28.515 16.9707 28.545 16.9101 28.545 16.8496V14.3821C28.545 14.3216 28.53 14.2611 28.515 14.2005L28.515 14.2005C28.485 14.1399 28.425 14.0794 28.365 14.0642C27.96 13.8977 27.525 13.7766 27.075 13.7161C26.46 13.6253 25.83 13.5798 25.215 13.5798C24.15 13.5798 23.265 13.7464 22.56 14.1097C21.915 14.4124 21.36 14.8968 20.985 15.5023C20.655 16.0624 20.475 16.6831 20.475 17.334C20.46 17.8638 20.58 18.3936 20.82 18.878C21.105 19.3927 21.495 19.8317 21.96 20.1647C22.62 20.6188 23.325 20.9821 24.09 21.2546C24.825 21.5422 25.32 21.7693 25.56 21.9661C25.8 22.1629 25.92 22.3597 25.92 22.5716C25.92 22.8441 25.755 23.1014 25.515 23.2074C25.245 23.3436 24.84 23.4193 24.27 23.4193C23.67 23.4193 23.07 23.3436 22.5 23.1922C21.84 23.0409 21.225 22.7986 20.64 22.4505C20.595 22.4202 20.55 22.4051 20.505 22.4353C20.46 22.4656 20.445 22.5262 20.445 22.5716V25.2055C20.43 25.3266 20.505 25.4326 20.61 25.4931C21.09 25.7202 21.615 25.8867 22.14 25.9775C22.815 26.1138 23.49 26.1743 24.18 26.1743C25.26 26.1743 26.16 26.0078 26.895 25.6899C27.57 25.4175 28.155 24.9482 28.575 24.3427C28.965 23.7523 29.175 23.0409 29.16 22.3294C29.175 21.7844 29.055 21.2546 28.815 20.7702C28.53 20.2555 28.125 19.8317 27.63 19.5138C26.91 19.0597 26.13 18.6812 25.32 18.4087C24.96 18.2574 24.6 18.0909 24.255 17.9092C24.06 17.8032 23.88 17.667 23.745 17.5005C23.655 17.3794 23.595 17.2431 23.595 17.1069C23.595 16.9707 23.64 16.8193 23.715 16.6982C23.82 16.5468 23.985 16.4409 24.18 16.3954C24.465 16.3198 24.78 16.2743 25.08 16.2895C25.65 16.2895 26.205 16.3652 26.76 16.4863Z" fill="#0661A2"/>
</svg>
