<svg width="788" height="1186" viewBox="0 0 788 1186" fill="none" xmlns="http://www.w3.org/2000/svg">
<path d="M783.346 527.574C794.904 572.506 777.375 620.121 757.081 661.84C738.987 699.034 679.954 710.525 674.408 751.514C654.713 897.085 832.567 1170.35 686.363 1184.54C529.99 1199.71 602.192 867.204 478.329 770.542C417.874 723.363 346.896 869.129 270.738 860.184C194.77 851.263 131.224 789.518 90.1938 724.959C44.0062 652.284 -44.9079 524.041 28.2856 478.695C144.509 406.689 344.595 621.371 429.88 514.508C527.693 391.947 294.627 196.698 365.125 56.6302C409.35 -31.2363 589.043 -5.76272 655.009 67.2164C736.209 157.05 662.875 305.367 695.393 422.012C707.906 466.894 771.739 482.448 783.346 527.574Z" fill="#EEF8FF"/>
</svg>
