<svg width="36" height="37" viewBox="0 0 36 37" fill="none" xmlns="http://www.w3.org/2000/svg">
<path d="M3 5H12C13.5913 5 15.1174 5.63214 16.2426 6.75736C17.3679 7.88258 18 9.4087 18 11V32C18 30.8065 17.5259 29.6619 16.682 28.818C15.8381 27.9741 14.6935 27.5 13.5 27.5H3V5Z" stroke="#111111" stroke-width="3" stroke-linecap="round" stroke-linejoin="round"/>
<path d="M33 5H24C22.4087 5 20.8826 5.63214 19.7574 6.75736C18.6321 7.88258 18 9.4087 18 11V32C18 30.8065 18.4741 29.6619 19.318 28.818C20.1619 27.9741 21.3065 27.5 22.5 27.5H33V5Z" stroke="#111111" stroke-width="3" stroke-linecap="round" stroke-linejoin="round"/>
</svg>
