<svg width="36" height="37" viewBox="0 0 36 37" fill="none" xmlns="http://www.w3.org/2000/svg">
<path d="M30 11H6C4.34315 11 3 12.3431 3 14V29C3 30.6569 4.34315 32 6 32H30C31.6569 32 33 30.6569 33 29V14C33 12.3431 31.6569 11 30 11Z" stroke="#232323" stroke-width="3" stroke-linecap="round" stroke-linejoin="round"/>
<path d="M24 32V8C24 7.20435 23.6839 6.44129 23.1213 5.87868C22.5587 5.31607 21.7956 5 21 5H15C14.2044 5 13.4413 5.31607 12.8787 5.87868C12.3161 6.44129 12 7.20435 12 8V32" stroke="#232323" stroke-width="3" stroke-linecap="round" stroke-linejoin="round"/>
</svg>
