<svg width="36" height="36" viewBox="0 0 36 36" fill="none" xmlns="http://www.w3.org/2000/svg">
<path d="M0 18C0 8.0589 8.0589 0 18 0C27.9411 0 36 8.0589 36 18C36 27.9411 27.9411 36 18 36C8.0589 36 0 27.9411 0 18Z" fill="#333333"/>
<path d="M14.4 28.8001C16.3882 28.8001 18 27.1883 18 25.2001V21.6001H14.4C12.4118 21.6001 10.8 23.2119 10.8 25.2001C10.8 27.1883 12.4118 28.8001 14.4 28.8001Z" fill="#0ACF83"/>
<path d="M10.8 18.0004C10.8 16.0122 12.4118 14.4004 14.4 14.4004H18V21.6004H14.4C12.4118 21.6004 10.8 19.9886 10.8 18.0004Z" fill="#A259FF"/>
<path d="M10.8 10.8002C10.8 8.81197 12.4118 7.2002 14.4 7.2002H18V14.4002H14.4C12.4118 14.4002 10.8 12.7884 10.8 10.8002Z" fill="#F24E1E"/>
<path d="M18 7.2002H21.6C23.5882 7.2002 25.2 8.81197 25.2 10.8002C25.2 12.7884 23.5882 14.4002 21.6 14.4002H18V7.2002Z" fill="#FF7262"/>
<path d="M25.2 18.0004C25.2 19.9886 23.5882 21.6004 21.6 21.6004C19.6118 21.6004 18 19.9886 18 18.0004C18 16.0122 19.6118 14.4004 21.6 14.4004C23.5882 14.4004 25.2 16.0122 25.2 18.0004Z" fill="#1ABCFE"/>
</svg>
