<svg width="44" height="45" viewBox="0 0 44 45" fill="none" xmlns="http://www.w3.org/2000/svg">
<g clip-path="url(#clip0_659_697)">
<path d="M9.16663 10.5833C9.16663 8.88152 9.84267 7.24941 11.046 6.04605C12.2494 4.8427 13.8815 4.16666 15.5833 4.16666H22V17H15.5833C13.8815 17 12.2494 16.3239 11.046 15.1206C9.84267 13.9172 9.16663 12.2851 9.16663 10.5833Z" stroke="black" stroke-width="3" stroke-linecap="round" stroke-linejoin="round"/>
<path d="M22 4.16666H28.4167C29.2593 4.16666 30.0937 4.33263 30.8722 4.6551C31.6507 4.97756 32.3581 5.45021 32.9539 6.04605C33.5498 6.6419 34.0224 7.34926 34.3449 8.12777C34.6674 8.90628 34.8333 9.74067 34.8333 10.5833C34.8333 11.426 34.6674 12.2604 34.3449 13.0389C34.0224 13.8174 33.5498 14.5247 32.9539 15.1206C32.3581 15.7164 31.6507 16.1891 30.8722 16.5116C30.0937 16.834 29.2593 17 28.4167 17H22V4.16666Z" stroke="black" stroke-width="3" stroke-linecap="round" stroke-linejoin="round"/>
<path d="M22 23.4167C22 22.574 22.166 21.7396 22.4884 20.9611C22.8109 20.1826 23.2836 19.4752 23.8794 18.8794C24.4752 18.2836 25.1826 17.8109 25.9611 17.4884C26.7396 17.166 27.574 17 28.4167 17C29.2593 17 30.0937 17.166 30.8722 17.4884C31.6507 17.8109 32.3581 18.2836 32.9539 18.8794C33.5498 19.4752 34.0224 20.1826 34.3449 20.9611C34.6674 21.7396 34.8333 22.574 34.8333 23.4167C34.8333 24.2593 34.6674 25.0937 34.3449 25.8722C34.0224 26.6507 33.5498 27.3581 32.9539 27.9539C32.3581 28.5498 31.6507 29.0224 30.8722 29.3449C30.0937 29.6674 29.2593 29.8333 28.4167 29.8333C27.574 29.8333 26.7396 29.6674 25.9611 29.3449C25.1826 29.0224 24.4752 28.5498 23.8794 27.9539C23.2836 27.3581 22.8109 26.6507 22.4884 25.8722C22.166 25.0937 22 24.2593 22 23.4167V23.4167Z" stroke="black" stroke-width="3" stroke-linecap="round" stroke-linejoin="round"/>
<path d="M9.16663 36.25C9.16663 34.5482 9.84267 32.9161 11.046 31.7127C12.2494 30.5094 13.8815 29.8333 15.5833 29.8333H22V36.25C22 37.9518 21.3239 39.5839 20.1206 40.7873C18.9172 41.9906 17.2851 42.6667 15.5833 42.6667C13.8815 42.6667 12.2494 41.9906 11.046 40.7873C9.84267 39.5839 9.16663 37.9518 9.16663 36.25Z" stroke="black" stroke-width="3" stroke-linecap="round" stroke-linejoin="round"/>
<path d="M9.16663 23.4167C9.16663 21.7149 9.84267 20.0828 11.046 18.8794C12.2494 17.676 13.8815 17 15.5833 17H22V29.8333H15.5833C13.8815 29.8333 12.2494 29.1573 11.046 27.9539C9.84267 26.7506 9.16663 25.1185 9.16663 23.4167Z" stroke="black" stroke-width="3" stroke-linecap="round" stroke-linejoin="round"/>
</g>
<defs>
<clipPath id="clip0_659_697">
<rect width="44" height="44" fill="white" transform="translate(0 0.5)"/>
</clipPath>
</defs>
</svg>
