<svg width="110" height="51" viewBox="0 0 110 51" fill="none" xmlns="http://www.w3.org/2000/svg">
<path d="M2 47C2 48.1046 2.89543 49 4 49C5.10457 49 6 48.1046 6 47H2ZM4 6.21749L5.08139 4.53505L2 2.55449V6.21749H4ZM64 44.7825L62.9186 46.465L66 48.4455V44.7825H64ZM66 4C66 2.89543 65.1046 2 64 2C62.8954 2 62 2.89543 62 4H66ZM6 47V6.21749H2V47H6ZM2.91861 7.89993L62.9186 46.465L65.0814 43.1001L5.08139 4.53505L2.91861 7.89993ZM66 44.7825V4H62V44.7825H66Z" fill="#0661A2"/>
<path d="M81.003 23.7701C79.6677 23.7701 79 23.1354 79 21.866C79 20.622 79.6677 20 81.003 20C82.3384 20 83.006 20.622 83.006 21.866C83.006 23.1354 82.3384 23.7701 81.003 23.7701ZM81.003 46.9238C79.9952 46.9238 79.4913 46.3653 79.4913 45.2482V29.6728C79.4913 28.5811 79.9952 28.0353 81.003 28.0353C82.036 28.0353 82.5525 28.5811 82.5525 29.6728V45.2482C82.5525 46.3653 82.036 46.9238 81.003 46.9238Z" fill="#0661A2"/>
<path d="M91.6765 47C90.6687 47 90.1648 46.4669 90.1648 45.4006V29.5205C90.1648 28.4795 90.6561 27.9591 91.6387 27.9591C92.6465 27.9591 93.1504 28.4795 93.1504 29.5205V31.3865C93.7551 30.2186 94.6118 29.3427 95.7204 28.7588C96.8289 28.1749 98.0761 27.8829 99.4618 27.8829C103.821 27.8829 106 30.3202 106 35.1946V45.4006C106 46.4669 105.496 47 104.488 47C103.455 47 102.939 46.4669 102.939 45.4006V35.3851C102.939 33.6587 102.599 32.402 101.918 31.615C101.263 30.8025 100.205 30.3963 98.7438 30.3963C97.0557 30.3963 95.7078 30.9295 94.7 31.9958C93.7173 33.0367 93.226 34.433 93.226 36.1848V45.4006C93.226 46.4669 92.7095 47 91.6765 47Z" fill="#0661A2"/>
</svg>
